<?xml version="1.0" encoding="UTF-8"?>
<svg version="1.1" xmlns="http://www.w3.org/2000/svg" width="64" height="64">
<path d="M0 0 C2.59035215 1.27710502 5.11228087 2.64040509 7.63500977 4.04614258 C8.51415039 4.5230957 9.39329102 5.00004883 10.29907227 5.49145508 C12.45905146 6.66535681 14.61208191 7.85037581 16.76000977 9.04614258 C16.22675337 13.64285095 16.22675337 13.64285095 14.1652832 15.42407227 C13.49013672 15.76857422 12.81499023 16.11307617 12.11938477 16.46801758 C11.37817383 16.85344727 10.63696289 17.23887695 9.87329102 17.63598633 C9.0934082 18.01883789 8.31352539 18.40168945 7.51000977 18.79614258 C6.7455957 19.19446289 5.98118164 19.5927832 5.19360352 20.00317383 C-2.74157922 24.04614258 -2.74157922 24.04614258 -6.23999023 24.04614258 C-9.04989153 23.05252729 -11.61985202 21.70772996 -14.23999023 20.29614258 C-14.93866211 19.93520508 -15.63733398 19.57426758 -16.35717773 19.20239258 C-20.06285792 17.27264214 -23.6832923 15.24129209 -27.23999023 13.04614258 C-27.28295898 10.84692383 -27.28295898 10.84692383 -26.23999023 8.04614258 C-23.55074048 6.02704727 -20.58689902 4.66173943 -17.55249023 3.23364258 C-16.74875977 2.82694336 -15.9450293 2.42024414 -15.11694336 2.0012207 C-9.81710636 -0.5771955 -5.74596752 -2.44681146 0 0 Z " fill="#309CFA" transform="translate(37.239990234375,5.953857421875)"/>
<path d="M0 0 C0.11622939 3.74973906 0.1872595 7.49901464 0.25 11.25 C0.30027344 12.84521484 0.30027344 12.84521484 0.3515625 14.47265625 C0.36445312 15.49746094 0.37734375 16.52226563 0.390625 17.578125 C0.41157227 18.52075195 0.43251953 19.46337891 0.45410156 20.43457031 C-0.13940347 23.78755464 -1.39764764 24.87109218 -4 27 C-6.37460815 28.61109303 -8.90094582 29.91105644 -11.4375 31.25 C-12.09298828 31.61351562 -12.74847656 31.97703125 -13.42382812 32.3515625 C-17.0805754 34.30280578 -19.8314129 35.48191758 -24 35 C-25.80739357 31.38521286 -25.22756068 27.16767454 -25.25 23.1875 C-25.270625 22.28451172 -25.29125 21.38152344 -25.3125 20.45117188 C-25.36433527 11.63269664 -25.36433527 11.63269664 -22 8 C-19.3250156 6.12624914 -16.52743178 4.61543794 -13.625 3.125 C-12.49191406 2.50238281 -12.49191406 2.50238281 -11.3359375 1.8671875 C-10.59859375 1.48046875 -9.86125 1.09375 -9.1015625 0.6953125 C-8.43463379 0.34484863 -7.76770508 -0.00561523 -7.08056641 -0.36669922 C-4.42549783 -1.17487194 -2.64488344 -0.71431999 0 0 Z " fill="#1770F3" transform="translate(58,24)"/>
<path d="M0 0 C6.07233829 0.44626108 10.18275454 2.41142673 15.375 5.5 C16.09816406 5.91636719 16.82132813 6.33273438 17.56640625 6.76171875 C22.79007394 9.79007394 22.79007394 9.79007394 24 11 C24.08737645 12.85369611 24.10698153 14.71067541 24.09765625 16.56640625 C24.09443359 17.69111328 24.09121094 18.81582031 24.08789062 19.97460938 C24.07951172 21.15861328 24.07113281 22.34261719 24.0625 23.5625 C24.05798828 24.75037109 24.05347656 25.93824219 24.04882812 27.16210938 C24.03699675 30.10812226 24.02051287 33.05403681 24 36 C17.92766171 35.55373892 13.81724546 33.58857327 8.625 30.5 C7.90183594 30.08363281 7.17867187 29.66726562 6.43359375 29.23828125 C1.20992606 26.20992606 1.20992606 26.20992606 0 25 C-0.08737645 23.14630389 -0.10698153 21.28932459 -0.09765625 19.43359375 C-0.09443359 18.30888672 -0.09121094 17.18417969 -0.08789062 16.02539062 C-0.07951172 14.84138672 -0.07113281 13.65738281 -0.0625 12.4375 C-0.05798828 11.24962891 -0.05347656 10.06175781 -0.04882812 8.83789062 C-0.03699675 5.89187774 -0.02051287 2.94596319 0 0 Z " fill="#1770F3" transform="translate(6,23)"/>
</svg>
